<?xml version="1.0" encoding="UTF-8"?>
<svg id="Layer_1" data-name="Layer 1" xmlns="http://www.w3.org/2000/svg" width="45" height="33.4" viewBox="0 0 45 33.4">
  <path d="M45,1.65c-.03,10.58-.06,21.17-.09,31.75l-22.15-.07c9.13-1.27,16.16-9.1,16.16-18.58,0-5.11-2.05-9.75-5.37-13.13,5.38.01,9.91.02,11.45.03h0Z" fill="#f43131" fill-rule="evenodd"/>
  <path d="M19.88,0c2.1,0,3.79,1.7,3.79,3.79s-1.7,3.79-3.79,3.79-3.79-1.7-3.79-3.79,1.7-3.79,3.79-3.79h0Z" fill="#f43131" fill-rule="evenodd"/>
  <path d="M29.33,8.94c2.1,0,3.79,1.7,3.79,3.79s-1.7,3.79-3.79,3.79-3.79-1.7-3.79-3.79c0-2.1,1.7-3.79,3.79-3.79h0Z" fill="#f43131" fill-rule="evenodd"/>
  <path d="M26.1,19.99c2.1,0,3.79,1.7,3.79,3.79s-1.7,3.79-3.79,3.79c-1.76,0-3.25-1.2-3.67-2.83h0s-7.14,8.44-7.14,8.44l6.79-11.54-9.23-6.9-5.55-4.15-4.51-3.38h0s-.28-.19-.28-.19C-.87,4.57-.05,1.87,6.79,1.59c-1.58,1.61-2.51,3.24-3.62,5.01h0s4.77,3.26,4.77,3.26c.66-.57,1.53-.92,2.48-.92,2.1,0,3.79,1.7,3.79,3.79,0,.44-.08.87-.22,1.27l9.85,6.73h0c.63-.46,1.41-.74,2.25-.74h0Z" fill="#f43131" fill-rule="evenodd"/>
  <path d="M19.88,13.57c.85,0,1.53.69,1.53,1.53s-.69,1.53-1.53,1.53-1.53-.69-1.53-1.53c0-.85.69-1.53,1.53-1.53h0Z" fill="#f43131" fill-rule="evenodd"/>
  <path d="M18.76,22.02c-.8-.59-1.64-1.2-2.51-1.81l-1.39,2.27c.88.67,1.83,1.44,2.48,1.95l1.41-2.41h0ZM14,18.62c-1.02-.72-2.06-1.45-3.1-2.18l-1.19,2.04c.9.73,1.88,1.51,2.95,2.33l1.33-2.19h0ZM8.59,14.76c-.76-.56-1.5-1.12-2.21-1.68l-.94,1.62c.62.59,1.31,1.23,2.08,1.9l1.08-1.85h0ZM4.14,11.27c-.46-.4-.91-.79-1.33-1.19l-.65,1.11c.34.43.74.9,1.2,1.41l.77-1.33h0ZM.91,8.15c-.33-.38-.63-.75-.9-1.12,0,.02,0,.04-.01.06,0-.01.01-.02.02-.03,0,0-.08.52.53,1.72l.37-.63h0Z" fill="#f9f326" fill-rule="evenodd"/>
  <polygon points="5.38 20.87 2.63 25.34 8.16 25.94 5.38 20.87" fill="#f9f326" fill-rule="evenodd"/>
</svg>